<svg xmlns="http://www.w3.org/2000/svg" xmlns:xlink="http://www.w3.org/1999/xlink"><symbol viewBox="-293 409 25 25" id="i-bell"><path d="M-273.327 423.67l-1.673-1.52v-3.646a5.5 5.5 0 0 0-6.04-5.474c-2.86.273-4.96 2.838-4.96 5.71v3.41l-1.68 1.553c-.204.19-.32.456-.32.734V427a1 1 0 0 0 1 1h3.49a3.079 3.079 0 0 0 3.01 2.45 3.08 3.08 0 0 0 3.01-2.45h3.49a1 1 0 0 0 1-1v-2.59c0-.28-.12-.55-.327-.74zm-7.173 5.63c-.842 0-1.55-.546-1.812-1.3h3.624a1.92 1.92 0 0 1-1.812 1.3zm6.35-2.45h-12.7v-2.347l1.63-1.51c.236-.216.37-.522.37-.843v-3.41c0-2.35 1.72-4.356 3.92-4.565a4.353 4.353 0 0 1 4.78 4.33v3.645c0 .324.137.633.376.85l1.624 1.477v2.373z"/></symbol><symbol viewBox="0 0 600 600" id="i-webpack"><path d="M517.7 439.5L308.8 557.8v-92L439 394.1l78.7 45.4zm14.3-12.9V179.4l-76.4 44.1v159l76.4 44.1zM81.5 439.5l208.9 118.2v-92l-130.2-71.6-78.7 45.4zm-14.3-12.9V179.4l76.4 44.1v159l-76.4 44.1zm8.9-263.2L290.4 42.2v89l-137.3 75.5-1.1.6-75.9-43.9zm446.9 0L308.8 42.2v89L446 206.8l1.1.6 75.9-44zM290.4 444.8L162 374.1V234.2l128.4 74.1v136.5zm18.4 0l128.4-70.6v-140l-128.4 74.1v136.5zM299.6 303zm-129-85l129-70.9L428.5 218l-128.9 74.4-129-74.4z"/></symbol></svg>